<svg height="492" viewBox="0 0 492 492" width="492" xmlns="http://www.w3.org/2000/svg" xmlns:xlink="http://www.w3.org/1999/xlink"><radialGradient id="a" cx="234.858" cy="486.552" gradientUnits="userSpaceOnUse" r="220.13"><stop offset=".00001" stop-color="#bcbaba"/><stop offset=".42438" stop-color="#b8bab8"/><stop offset=".68355" stop-color="#656567"/><stop offset="1" stop-color="#b2b2b2"/></radialGradient><radialGradient id="b" cx="234.858" cy="486.552" gradientUnits="userSpaceOnUse" r="220.13"><stop offset=".00001" stop-color="#bcbaba"/><stop offset=".52992" stop-color="#b8bab8"/><stop offset=".80745" stop-color="#656567"/><stop offset="1" stop-color="#b2b2b2"/></radialGradient><radialGradient id="c" cx="231.828" cy="-4.398" gradientUnits="userSpaceOnUse" r="220.13"><stop offset=".00001" stop-color="#bcbaba" stop-opacity="0"/><stop offset=".21788" stop-color="#b8bab8" stop-opacity="0"/><stop offset=".71624" stop-color="#676563"/><stop offset="1" stop-color="#b2b2b2" stop-opacity="0"/></radialGradient><radialGradient id="d" cx="231.828" cy="-4.398" gradientUnits="userSpaceOnUse" r="220.13"><stop offset=".00001" stop-color="#bcbaba"/><stop offset=".42438" stop-color="#b8bab8"/><stop offset=".92676" stop-color="#656567"/><stop offset="1" stop-color="#b2b2b2"/></radialGradient><radialGradient id="e" cx="233.845233" cy="495.627667" gradientUnits="userSpaceOnUse" r="205.567267"><stop offset=".00001" stop-color="#dfdfe1"/><stop offset=".52992" stop-color="#d4d2d4"/><stop offset=".80745" stop-color="#656567"/><stop offset="1" stop-color="#d4d2d0"/></radialGradient><radialGradient id="f" cx="241.92567" cy="241.105168" gradientUnits="userSpaceOnUse" r="156.137197"><stop offset=".00001" stop-color="#ff0d1d"/><stop offset=".47218" stop-color="#d40000" stop-opacity=".83648"/><stop offset=".67584" stop-color="#d40000" stop-opacity=".59748"/><stop offset="1" stop-color="#d40000" stop-opacity=".056604"/></radialGradient><radialGradient id="g" cx="241.924688" cy="241.07289" gradientUnits="userSpaceOnUse" r="97.481462"><stop offset=".00001" stop-color="#ffa74d" stop-opacity=".74843"/><stop offset=".28205" stop-color="#ff270f"/><stop offset="1" stop-color="#f00" stop-opacity="0"/></radialGradient><radialGradient id="h" cx="241.922" cy="241.072" gradientUnits="userSpaceOnUse" r="13.132"><stop offset=".00001" stop-color="#ff0"/><stop offset="1" stop-color="#ffa500" stop-opacity="0"/></radialGradient><linearGradient id="i"><stop offset=".00001" stop-color="#e4e2e2"/><stop offset="1" stop-color="#ddd9dc" stop-opacity=".16352"/></linearGradient><radialGradient id="j" cx="240.178635" cy="138.670987" gradientUnits="userSpaceOnUse" r="219.458799" xlink:href="#i"/><radialGradient id="k" cx="241.913744" cy="99.210048" gradientUnits="userSpaceOnUse" r="389.834038" xlink:href="#i"/><radialGradient id="l" cx="239.143584" cy="158.812342" gradientUnits="userSpaceOnUse" r="107.767035" xlink:href="#i"/><radialGradient id="m" cx="239.920692" cy="171.217589" gradientUnits="userSpaceOnUse" r="123.733148" xlink:href="#i"/><radialGradient id="n" cx="239.924634" cy="189.909373" gradientUnits="userSpaceOnUse" r="78.574189" xlink:href="#i"/><filter id="o" color-interpolation-filters="sRGB" filterUnits="userSpaceOnUse" height="492" width="492" x="0" y="0"><feGaussianBlur stdDeviation="7.516443"/></filter><path d="m461.638 241.082001c0-121.340027-98.367034-219.710053-219.709991-219.710053-121.343018 0-219.710014 98.367035-219.710014 219.710053 0 121.342987 98.366996 219.709991 219.710014 219.709991 121.342957 0 219.709991-98.367004 219.709991-219.709991z" fill="url(#a)" stroke="url(#b)" stroke-linecap="round" stroke-linejoin="round" stroke-width=".848"/><path d="m461.638 241.071991c0 121.340057-98.367034 219.710022-219.709991 219.710022-121.343018 0-219.710014-98.366974-219.710014-219.710022 0-121.342987 98.366996-219.709991 219.710014-219.709991 121.342957 0 219.709991 98.367004 219.709991 219.709991z" fill="url(#c)" stroke="url(#d)" stroke-linecap="round" stroke-linejoin="round" stroke-width=".848"/><path d="m447.496307 241.070801c0 113.529388-92.035095 205.567291-205.56723 205.567291-113.53215 0-205.567276-92.035126-205.567276-205.567291 0-113.532135 92.035126-205.567261 205.567276-205.567261 113.532135 0 205.56723 92.035126 205.56723 205.567261z" fill="url(#e)"/><path d="m423.759277 241.074066c0 100.419769-81.407562 181.829804-181.829773 181.829804-100.422256 0-181.829811-81.407532-181.829811-181.829804 0-100.422241 81.407555-181.829803 181.829811-181.829803 100.422211 0 181.829773 81.407562 181.829773 181.829803z"/><path d="m392.93985 241.080109c0 85.079834-67.61142 154.050323-151.014191 154.050323s-151.01419-68.970489-151.01419-154.050323 67.611419-154.050324 151.01419-154.050324c82.688049 0 149.998413 67.835724 151.003937 152.178467" fill="url(#f)"/><path d="m339.407379 241.072815c0 53.147644-43.643463 96.231873-97.481445 96.231873-53.837998 0-97.481476-43.084229-97.481476-96.231873s43.643478-96.231903 97.481476-96.231903c53.375274 0 96.825744 42.375336 97.474029 95.062744" fill="url(#g)"/><path d="m255.058014 241.071991c0 7.252624-5.879425 13.132019-13.132019 13.132019s-13.131989-5.879395-13.131989-13.132019c0-7.252594 5.879395-13.131989 13.131989-13.131989 7.190399 0 13.044006 5.782593 13.131012 12.972016" fill="url(#h)"/><path d="m240.185303 132.212006c-14.039002 0-27.274994 2.83789-38.877991 7.830902 4.346283 2.675293 8.517578 5.529083 12.507996 8.538879 8.284484-2.247681 17.156982-3.46759 26.371002-3.46759 8.021484 0 15.774994.921966 23.115997 2.644012 4.300293-3.075409 8.791199-5.972015 13.475983-8.668915-11.049988-4.407501-23.457001-6.877288-36.59198-6.877288zm60.05899 20.819976c-3.861206 1.509308-7.626983 3.139222-11.311981 4.883515 7.508789 4.416412 14.083984 9.825989 19.421997 15.993988 2.503479-.77301 5.028992-1.488983 7.582184-2.152802-3.925201-6.953186-9.257477-13.277984-15.691986-18.724975zm-120.979996.765747c-6.800399 5.936921-12.317001 12.861023-16.166992 20.488007 2.258896.726135 4.505097 1.498596 6.7202 2.311707 5.357101-6.864502 12.199005-12.891999 20.14299-17.786011-3.474899-1.783295-7.050186-3.443787-10.695999-5.013489zm144.240006 46.769013c-.441528.094116-.879211.191589-1.319397.288971.407684 1.848389.730408 3.723297.949982 5.620392.226227-1.950501.350921-3.915711.369415-5.909302zm-166.539993 2.470612c.061813 1.153076.167038 2.300476.299057 3.43869.125457-1.083893.27005-2.153504.457397-3.221985-.252716-.072327-.503265-.145538-.756454-.216736z" fill="url(#j)" opacity=".65476"/><path d="m241.909607 85.242004c-24.938019 0-48.435013 6.130188-69.046997 16.929993 7.720688 5.786285 15.126984 11.967011 22.214996 18.47699 14.716004-4.861481 30.464997-7.497803 46.832001-7.497803 14.248993 0 28.027985 1.988007 41.067993 5.712616 7.639008-6.651794 15.63501-12.911011 23.955994-18.744995-19.628998-9.53302-41.692993-14.877014-65.023987-14.877014zm106.690002 45.04599c-6.858917 3.264405-13.537994 6.789795-20.084015 10.562012 33.627015 24.082001 56.625 61.834992 60.731019 105.029999.437713-4.59491.66043-9.245911.66043-13.954041 0-39.461975-15.726989-75.270965-41.307983-101.639984zm-214.920013 1.636414c-24.650986 26.202972-39.746994 61.347992-39.746994 99.999969 0 4.708436.222717 9.359436.660461 13.954041 3.998291-42.060028 25.901993-78.953033 58.089997-103.090027-6.172806-3.857086-12.527008-7.464783-19.003006-10.859985z" fill="url(#k)" opacity=".96825"/><path d="m239.142487 156.682007c-22.593995 0-40.905976 10.036987-40.905976 22.415985 0 .719513.061554 1.430298.182556 2.132507 1.957001-11.380005 19.440003-20.283996 40.723023-20.283996 21.283996 0 38.773987 8.903198 40.730987 20.283996.121003-.702209.182587-1.412994.182587-2.132507 0-12.378998-18.320007-22.415985-40.914001-22.415985z" fill="url(#l)" opacity=".4246"/><path d="m239.917999 167.962006c-7.915405 0-11.585022.421692-18.127014 2.944091 1.440399 2.866791 1.644501 3.047699 3.263001 5.325806 4.67099-1.135498 9.669708-1.751312 14.864013-1.751312 4.522675 0 8.896088.464355 13.035004 1.334289 1.161896-1.55368 1.720184-2.995391 3.098694-5.620575-6.230408-2.226623-8.728302-2.232299-16.134003-2.232299zm33.863983 10.520996c-2.050781 1.646393-2.529296 2.091003-3.849182 3.9823 10.672974 5.624786 15.446991 12.927978 16.750977 23.015991.138946-1.073212.209656-2.159607.209656-3.259308 0-9.217194-4.991822-17.580994-13.111023-23.738983zm-68.213989.382202c-7.824097 6.1203-12.615982 14.32901-12.615982 23.357025 0 1.09967.070679 2.186096.209625 3.259277 1.269074-9.824005 6.453568-15.662994 16.669968-21.302002-1.959198-2.794983-2.587006-3.511291-4.263794-5.314483z" fill="url(#m)" opacity=".52968"/><path d="m239.917999 188.231995c-5.02652 0-7.357025.216491-11.512024 1.511413.914734 1.47168 1.044312 1.564575 2.072113 2.734101 2.966187-.582947 6.140595-.899079 9.439392-.899079 2.87201 0 5.649323.238373 8.277619.684998.737854-.797608 1.092377-1.537812 1.967682-2.885407-3.956482-1.143097-5.542694-1.145996-10.244995-1.145996zm21.504975 5.401489c-1.302277.845215-1.606171 1.073425-2.444397 2.044403 6.777801 2.887604 9.8096 6.636719 10.637024 11.816009.088195-.550964.133087-1.108703.133087-1.673187 0-4.731903-3.169892-9.025604-8.325989-12.187011zm-43.317994.196228c-4.968505 3.141998-8.011383 7.356201-8.011383 11.990997 0 .564575.044892 1.122315.133088 1.673218.805938-5.043427 4.098205-8.041016 10.585998-10.936005-1.244171-1.434906-1.642792-1.802612-2.70758-2.728302z" fill="url(#n)" opacity=".52968"/><path d="m241.047913 101.387604c18.299377 22.996612 4.607025 64.339782-30.58313 92.342041-35.19014 28.002258-78.552262 32.059753-96.851624 9.063141-18.299331-22.996582-4.606979-64.339722 30.583145-92.34198 35.190155-28.002289 78.552292-32.059784 96.851609-9.063202z" fill="#fff" filter="url(#o)" opacity=".27381"/></svg>